<svg xmlns="http://www.w3.org/2000/svg" width="15" height="15" viewBox="0 0 15 15"><defs><style>.a{fill:#202948;}</style></defs><path class="a" d="M7.5,1.352c2,0,2.24.008,3.031.044A2.818,2.818,0,0,1,13.606,4.47c.036.791.043,1.028.043,3.031s-.007,2.24-.043,3.031c-.093,2.016-1.04,2.982-3.074,3.074-.791.036-1.028.044-3.031.044s-2.24-.007-3.031-.044c-2.038-.093-2.982-1.062-3.074-3.075C1.359,9.74,1.351,9.5,1.351,7.5s.008-2.239.044-3.031C1.488,2.453,2.435,1.488,4.469,1.4,5.261,1.359,5.5,1.352,7.5,1.352ZM7.5,0C5.463,0,5.208.009,4.408.045A4.14,4.14,0,0,0,.046,4.408C.009,5.208,0,5.463,0,7.5s.009,2.293.045,3.092a4.14,4.14,0,0,0,4.363,4.363c.8.036,1.056.045,3.092.045s2.293-.009,3.092-.045a4.14,4.14,0,0,0,4.362-4.363c.037-.8.046-1.056.046-3.092s-.009-2.292-.045-3.092A4.14,4.14,0,0,0,10.593.046C9.792.009,9.537,0,7.5,0Zm0,3.649A3.852,3.852,0,1,0,11.351,7.5,3.851,3.851,0,0,0,7.5,3.649ZM7.5,10A2.5,2.5,0,1,1,10,7.5,2.5,2.5,0,0,1,7.5,10Zm4-7.4a.9.9,0,1,0,.9.9A.9.9,0,0,0,11.5,2.6Z"/></svg>